<svg xmlns="http://www.w3.org/2000/svg" xml:space="preserve" viewBox="0 0 512 512"><path fill="#ec1b24" d="m387.2 486.8-43.3-73.4-44.2-109.8-4.3-38.2 14.9-36.8 26.7-29.8 39.6-14.2h39.1l32 15.1 24 23.1 13.3 36 4 29.3-16.9 52.5-46.1 94.2-26.8 52z"/><path fill="#f1f2f2" d="m385.9 342.2-31.9-13-20.9-31.7-1.6-30.8 13.3-27.1 16.9-13.2 25.8-8.4 25.3 3.1 22.4 15.6 16.3 25.6 1.7 27.7-12.3 28.2-22.7 17.7z"/><path fill="#97c7ff" d="M24.6 486.8h352v-18.7l-72.5-145.3-40-10.7-8.1-12-19.1-1.4-31.9 32h-12.5l-32.8-34.1-19.1 6.3-4.6 11-87.4 26.2-19.2 24.5z"/><path fill="#ffa087" d="m107.7 151-11.4 19 5.7 21.8 21.3 8.2 4.6 14.3 6.1 28 12.1 18.4 13.2 11.3v21l36.7 37.7 44.3-34.7v-26l20-23 13.4-44.7 21.7-7.3 8.7-19-6.1-21.3-21.7-3.7-9-10.3-122.6-4.4-16.8 10.8z"/><path fill="#6b6c6f" d="m90.3 58 1 54.3s12.9 33.3 13.2 33.5c.3.2 21.8 2.8 21.8 2.8l15.7-15 111.7 1 20.7 11.5 18.7 2.5 1.7-60.5L281.5 58l-43-14.2-50.5 1-40.8-5L124.8 29 120 56.5l-28.2-5-1.5 6.5z"/><path d="M112.2 23c.2-5.6 7.1-8.7 11.8-5.9 16.9 7.9 33 18.2 51.7 21.1 26.7 4 53.8.1 80.6 2.4 25.9 3.4 47.1 27.1 47.6 53.2-.1 19.4 1.5 39.5-2.1 58.3 21.1 18.4 6.6 56.8-21.6 55.9-.3 24.7-12.3 48.8-32.1 63.7 0 6.1 0 12.1-.1 18.2 8.4 4.4 24 3.2 24.4 15.8 7.2 2.3 14.4 4.4 21.8 6.1-13.8-37.6-2.2-81.9 27.5-108.5 29.4-27.9 75.7-35.5 112.5-18.7 44.9 19 73.1 73.4 57.4 120.5-19.4 64.4-51.3 124.2-85 182.1-4.4 9-16.2 11.2-24.3 6-2.6 1.3-5.2 2.5-8.1 2.5-116.4-.1-232.8 0-349.2 0-5.1.5-9.4-3.8-8.9-8.9 0-32.7-.2-65.4.1-98.1.9-31.3 24.7-59.6 55.1-66.8 18.8-5.4 37.7-10.5 56.4-16.2.3-12.6 16-11.4 24.4-15.9 0-6.1 0-12.1-.1-18.2-19.8-14.9-31.8-39-32.1-63.7-29.2 1-43.3-40.2-19.7-57.3-13.4-13-21.3-31.7-20.2-50.6.8-18.6-1.5-37.6 1.1-56 9.6-10.8 20.3 6.7 30.9 8.1.2-9.7-.4-19.4.2-29.1m15.9 14c-.1 18-.3 36 .1 54 .9 20.3 19.5 37.4 39.8 37 29.4.1 58.8-.1 88.1.1 9.9-.1 18.8 6.6 22.4 15.6l8 .9c3.2-15.9.8-32.4 1.5-48.6.6-22.2-19.9-41.5-42-40-39.9.3-82.7 3.8-117.9-19M96.3 63c.1 15-.1 30 .1 44.9 1.4 14.7 9.9 31.8 24.9 36.1 2-5.3 5.6-9.8 10.4-12.8-18.4-14.9-21.7-39.6-20.3-61.7-4.5-3.1-10.2-3.9-15.1-6.5m45.1 81.5c-4.1 1-5.6 5.6-5.4 9.4.1 19.1-.1 38.1.1 57.2.7 32.7 30.2 61.1 62.8 60.9 32.4 1.4 62.5-25.8 64.7-58.1.7-20.3.2-40.6.3-61 .6-5.6-4.6-9.7-9.9-8.9-37.5.4-75.1-.7-112.6.5m-21.5 47.8c.2-10.9.2-21.7 0-32.6-20.5.1-20.4 32.5 0 32.6m160.2-32.6c-.2 10.9-.2 21.7 0 32.6 20.4-.2 20.4-32.4 0-32.6M304.2 274c-1 20.2 7.5 39.2 13.9 57.9 20.1 51.4 45.2 100.9 73.9 148.1 33.7-56.9 64.8-116.2 84.3-179.6 15.9-48.8-24-103.4-74-107.8-48.1-7.1-96.1 32.9-98.1 81.4M168 281.2c0 3.9 0 7.8.1 11.7 10.8 10.4 21.1 21.3 31.9 31.6 10.9-10.3 21.2-21.2 31.9-31.6 0-3.9 0-7.8.1-11.7-20.1 9-43.9 9-64 0m-21.9 28.1c3.5 13 7.3 25.9 11.1 38.8 9.7-4.5 19.2-9.5 28.9-14.3-9.3-9.6-18.9-18.9-28.2-28.5-4 1.4-7.9 2.7-11.8 4m96.1-4c-9.2 9.6-18.9 18.9-28.2 28.5 9.6 4.8 19.1 9.8 28.8 14.3 3.8-12.9 7.5-25.8 11.1-38.8-3.9-1.3-7.8-2.6-11.7-4M70.9 338.9c-22.2 6.9-38.6 28.7-38.9 52-.2 29.7 0 59.4-.1 89.1h64c.2-21.6-.3-43.3.2-65 .2-9.1 15.4-9.1 15.6 0 .5 21.6 0 43.3.2 65h176c.1-21.6-.3-43.3.2-65 .2-9.1 15.4-9.1 15.6 0 .5 21.6 0 43.3.2 65H368c0-4.3.2-9-2.3-12.8-25.6-43.2-46.6-89.2-65.2-135.8-10.3-4.7-22.1-6.5-32.9-10.1-4.7 13.5-7.8 27.6-12.2 41.2-1.3 4.8-7.2 6.7-11.4 4.4-14.7-7.2-29.3-14.7-44-21.9-14.7 7.2-29.3 14.7-44 21.9-4.2 2.4-10.1.5-11.4-4.4-4.4-13.6-7.5-27.6-12.2-41.1-20.5 5.8-41 11.6-61.5 17.5z" class="st5"/><path d="M173.4 168.4c15.3-4.2 14.6 28.6-.8 22.9-7-4.3-7.1-19.4.8-22.9zm48 0c15.3-4.2 14.6 28.6-.8 22.9-7-4.3-7.1-19.4.8-22.9zm163 48.1c35.1-5.2 70.2 24 71.4 59.5 3.1 34.4-26.2 67.2-60.8 67.9-33.8 2.5-65.7-26-66.9-59.8-2.9-32.9 23.6-64.5 56.3-67.6m-.4 5.5c-23 2.9-43 21.1-48.3 43.9-9 32.4 15.2 68.5 48.3 72.1 26.7 4.2 54.7-13.1 62.9-39.2 15.1-39.1-22.1-84.4-62.9-76.8zm-213.7-3.6c15.6 8 35.9 14.9 51.9 2.7 6.6-7.4 19.3 1.7 13 9.9-18.7 16.9-49.9 16.9-69.3 1.1-5.1-4.1-2.2-13.2 4.4-13.7zm27.1 150c15.3-4.2 14.6 28.6-.8 22.8-7-4.2-7.1-19.2.8-22.8zm0 40c15.3-4.2 14.6 28.6-.8 22.8-7-4.2-7.1-19.2.8-22.8zm0 40c15.3-4.2 14.6 28.6-.8 22.8-7-4.2-7.1-19.2.8-22.8z" class="st5"/><path d="M378.9 229h27.2c2 .1 3.9 1.6 4.3 3.6.4 2 .7 4 1 6 1.8.3 3.4 1.6 3.8 3.5l2.1 11.5c.1.7.2 1.4.4 2.1.4.6 1 1.1 1.5 1.7 1.1-.6 2.2-1.4 3.4-1.8 1.8-.4 3.7.4 4.7 1.9.7 1.2 1.4 2.4 2.1 3.7 1 1.8.6 4.2-1 5.5-.9.7-1.9 1.2-2.9 1.8.4 1.2.8 2.5 1.1 3.8 1.5.1 3-.2 4.4.3 1.6.6 2.8 2.2 2.8 3.9v6c0 1 .1 2-.3 2.9-.5 1.6-2 2.7-3.7 2.9-1.1.1-2.2 0-3.3 0-.3 1.3-.7 2.5-1.1 3.8.9.6 1.9 1 2.8 1.7 1.6 1.2 2.1 3.7 1.1 5.5-.7 1.2-1.4 2.5-2.1 3.7-.9 1.5-2.8 2.4-4.6 2.1-1.3-.3-2.5-1.2-3.6-1.8-.6.7-1.5 1.3-1.6 2.2l-2.4 13c-.4 1.8-2 3.2-3.8 3.5l-.9 5.6a4.9 4.9 0 0 1-4.4 4h-27.2a4.8 4.8 0 0 1-4.4-4l-.9-5.6c-1.8-.3-3.4-1.6-3.8-3.5l-2.4-13.1c0-.4-.2-.7-.5-1-3-3.2-5.4-7-7.1-11.1-2.2-5.6-3-11.9-2.1-17.9 1-6.9 4-13.4 8.7-18.5.4-.4.9-.8 1-1.4l2.4-13.2c.4-1.8 2-3.2 3.8-3.5l.9-5.6c.5-2.4 2.4-4.1 4.6-4.2m-1.2 4.4-.9 5.1h31.4c-.3-1.7-.5-3.4-.9-5.1-.1-.8-.9-1.3-1.6-1.3h-26.4c-.8 0-1.5.6-1.6 1.3m-4.8 9.4c-.6 3.1-1.1 6.2-1.7 9.3a35 35 0 0 1 42.6 0c-.6-3.1-1.1-6.1-1.7-9.2-.1-.5-.3-1-.8-1.1-.5-.1-1-.1-1.5-.1H374c-.5 0-1 .5-1.1 1.1m16.5 5.5a32 32 0 0 0-11.3 3.3c-6 3-11 7.9-14 13.9a31.83 31.83 0 0 0 4.4 35.7c4.6 5.3 11.1 9.1 18 10.4 5.7 1.1 11.7.6 17.2-1.4 5-1.9 9.6-5.1 13.1-9.1 3.7-4.3 6.2-9.5 7.2-15.1a32 32 0 0 0-15.9-33.7c-5.7-3.3-12.3-4.6-18.7-4m33.8 10.4c-.7.3-1.3.8-2 1.1 1.2 1.7 2.3 3.6 3.2 5.5l2.1-1.2c.5-.4.5-1.1.2-1.6-.6-1.1-1.3-2.2-1.9-3.3-.3-.5-1-.8-1.6-.5m4.1 16.6c.4 3.2.4 6.4 0 9.6h2.5c.6-.1 1.1-.7 1-1.4v-6.8c.1-.6-.3-1.3-1-1.3-.8-.2-1.6-.1-2.5-.1m-6.1 25c.8.4 1.5 1 2.3 1.2.7.1 1.2-.5 1.5-1.1.5-1 1.1-1.9 1.7-2.9.3-.5.2-1.2-.3-1.5-.6-.4-1.3-.8-2-1.2-.9 1.9-2 3.8-3.2 5.5m-50 7.7c.6 3.1 1.1 6.2 1.7 9.3.1.6.6 1.1 1.2 1.1h36.4c.4 0 .8 0 1.2-.2.4-.3.5-.7.6-1.2.5-3 1.1-6 1.6-9a35 35 0 0 1-22.7 7.2c-7.3-.3-14.3-2.8-20-7.2m5.6 13.6c.3 1.7.5 3.4.9 5.1.1.8.9 1.3 1.6 1.3h26.4c.8 0 1.5-.5 1.6-1.3l.9-5.1h-31.4z"/><path d="M389.6 253.1c5.5-.6 11.2.5 16.1 3.3 5.3 2.9 9.5 7.6 11.8 13.1 2.2 5.1 2.7 10.8 1.6 16.2a27.36 27.36 0 0 1-22.6 21.3c-5.3.8-10.9 0-15.7-2.4-5.6-2.7-10.2-7.3-12.9-12.9-2.5-5.3-3.2-11.4-2-17.2 1.2-5.5 4.1-10.7 8.3-14.5 4.3-3.9 9.7-6.3 15.4-6.9m-14.3 10.4c-3.9 4-6.3 9.4-6.7 15h3.4c.8.1 1.5 1 1.4 1.8-.1.8-.8 1.4-1.6 1.4h-3.2c.4 5.9 3 11.6 7.3 15.6 4 3.9 9.4 6.3 15 6.7v-3.4c.1-.8 1-1.5 1.8-1.4.8.1 1.4.8 1.4 1.6v3.2c5.9-.4 11.6-3 15.6-7.3 3.9-4 6.3-9.4 6.7-15-1.2-.1-2.5.1-3.7-.1-1.4-.4-1.4-2.6 0-3 1.2-.2 2.5 0 3.7-.1-.4-5.6-2.8-11.1-6.8-15.1-4.1-4.2-9.7-6.8-15.5-7.2v3.4c-.1.8-1 1.5-1.8 1.4-.8-.1-1.4-.8-1.4-1.6v-3.2c-5.9.4-11.6 3-15.6 7.3z"/><path d="M403.5 266.9c.5-.5.9-1.1 1.6-1.2.9-.1 1.8.7 1.8 1.6 0 .5-.3 1-.7 1.3l-12.5 12.5c-.6.7-1.7.8-2.4.1l-7.8-7.8c-.4-.4-.7-.8-.7-1.3 0-.8.7-1.6 1.6-1.6.5 0 1 .3 1.3.7l6.7 6.7c3.8-3.7 7.4-7.4 11.1-11z"/></svg>